<svg width="193" height="100" viewBox="0 0 193 100" fill="none" xmlns="http://www.w3.org/2000/svg">
<path d="M6.13056 48.12C5.10656 48.12 4.21056 47.752 3.44256 47.016C2.70656 46.248 2.33856 45.352 2.33856 44.328C2.33856 43.304 2.70656 42.408 3.44256 41.64C4.21056 40.872 5.10656 40.488 6.13056 40.488C7.18656 40.488 8.08256 40.872 8.81856 41.64C9.58656 42.408 9.97056 43.304 9.97056 44.328C9.97056 45.352 9.58656 46.248 8.81856 47.016C8.08256 47.752 7.18656 48.12 6.13056 48.12ZM9.25056 75H3.05856V51H9.25056V75ZM74.5827 44.52L83.4147 41.4H89.1747V75H82.5507V48.408L76.2147 50.184L74.5827 44.52ZM115.849 46.872L109.561 55.032C111.897 55.704 113.753 56.888 115.129 58.584C116.537 60.28 117.241 62.296 117.241 64.632C117.241 68.088 116.073 70.792 113.737 72.744C111.465 74.696 108.633 75.672 105.241 75.672C102.585 75.672 100.233 75.064 98.1852 73.848C96.1372 72.6 94.6492 70.84 93.7212 68.568L99.3852 65.304C100.185 67.896 102.137 69.192 105.241 69.192C106.937 69.192 108.249 68.792 109.177 67.992C110.137 67.16 110.617 66.04 110.617 64.632C110.617 63.256 110.137 62.152 109.177 61.32C108.249 60.488 106.937 60.072 105.241 60.072H103.801L101.257 56.232L107.881 47.592H94.7292V41.4H115.849V46.872Z" fill="#010000"/>
<path d="M35.2699 41.4V47.736H21.8299V55.704H34.8859V62.04H21.8299V75H15.2059V41.4H35.2699ZM42.8806 48.12C41.8566 48.12 40.9606 47.752 40.1926 47.016C39.4566 46.248 39.0886 45.352 39.0886 44.328C39.0886 43.304 39.4566 42.408 40.1926 41.64C40.9606 40.872 41.8566 40.488 42.8806 40.488C43.9366 40.488 44.8326 40.872 45.5686 41.64C46.3366 42.408 46.7206 43.304 46.7206 44.328C46.7206 45.352 46.3366 46.248 45.5686 47.016C44.8326 47.752 43.9366 48.12 42.8806 48.12ZM46.0006 75H39.8086V51H46.0006V75ZM65.0119 62.712L73.7959 75H66.6439L61.4599 67.704L56.2279 75H49.0759L57.8599 62.76L49.4599 51H56.6119L61.4599 57.768L66.3079 51H73.4119L65.0119 62.712Z" fill="#2D9CDB"/>
<path d="M165.988 52.3145C165.949 45.6543 168.967 40.6348 175.061 36.9336C171.652 32.0508 166.496 29.3652 159.699 28.8477C153.264 28.3398 146.223 32.5977 143.645 32.5977C140.92 32.5977 134.689 29.0234 129.787 29.0234C119.67 29.1797 108.918 37.0898 108.918 53.1836C108.918 57.9394 109.787 62.8516 111.525 67.9102C113.85 74.5703 122.229 90.8887 130.969 90.625C135.539 90.5176 138.771 87.3828 144.719 87.3828C150.49 87.3828 153.479 90.625 158.576 90.625C167.395 90.498 174.973 75.6641 177.18 68.9844C165.354 63.4082 165.988 52.6562 165.988 52.3145ZM155.725 22.5293C160.676 16.6504 160.227 11.2988 160.08 9.375C155.705 9.62891 150.646 12.3535 147.766 15.7031C144.592 19.2969 142.727 23.7402 143.127 28.75C147.854 29.1113 152.17 26.6797 155.725 22.5293Z" fill="#010000"/>
</svg>
